<svg xmlns="http://www.w3.org/2000/svg" viewBox="0, 0, 400,400"><g id="svgg"><path id="path0" d="M193.400 25.698 C 192.300 25.909,191.040 26.225,190.600 26.399 C 190.160 26.573,188.900 27.026,187.800 27.405 C 186.700 27.785,184.990 28.458,184.000 28.902 C 183.010 29.346,181.840 29.848,181.400 30.018 C 180.041 30.544,176.637 32.038,175.905 32.429 C 175.523 32.633,175.001 32.800,174.744 32.800 C 174.487 32.800,173.135 33.340,171.738 34.000 C 170.341 34.660,168.939 35.200,168.623 35.200 C 168.306 35.200,167.952 35.353,167.837 35.541 C 167.721 35.728,166.765 36.202,165.713 36.595 C 164.661 36.987,163.080 37.612,162.200 37.983 C 161.320 38.355,159.790 38.988,158.800 39.392 C 157.810 39.795,156.066 40.547,154.925 41.062 C 153.783 41.578,152.733 42.000,152.589 42.000 C 152.446 42.000,151.163 42.540,149.737 43.200 C 148.311 43.860,146.927 44.400,146.661 44.400 C 146.395 44.400,145.823 44.637,145.389 44.927 C 144.955 45.217,143.700 45.778,142.600 46.173 C 141.500 46.568,139.475 47.411,138.099 48.046 C 136.723 48.681,135.364 49.200,135.079 49.200 C 134.794 49.200,134.389 49.344,134.180 49.520 C 133.971 49.696,132.720 50.258,131.400 50.770 C 130.080 51.281,127.875 52.217,126.499 52.850 C 125.123 53.482,123.764 54.000,123.479 54.000 C 123.194 54.000,122.789 54.153,122.580 54.340 C 122.371 54.527,121.390 54.992,120.400 55.373 C 118.607 56.063,117.516 56.522,114.740 57.753 C 113.936 58.109,113.161 58.400,113.018 58.400 C 112.874 58.400,111.911 58.770,110.878 59.222 C 108.152 60.415,108.634 60.217,98.000 64.505 C 96.350 65.171,93.867 66.229,92.482 66.858 C 91.097 67.486,89.790 68.000,89.577 68.000 C 89.364 68.000,88.877 68.159,88.495 68.354 C 88.113 68.549,86.810 69.115,85.600 69.612 C 84.390 70.109,82.450 70.940,81.289 71.458 C 80.128 71.976,79.075 72.400,78.950 72.400 C 78.824 72.400,78.154 72.648,77.460 72.951 C 75.327 73.884,67.509 77.085,65.462 77.863 C 61.418 79.401,59.333 82.673,60.641 85.430 C 61.273 86.762,64.872 89.600,65.929 89.600 C 66.247 89.600,68.887 90.670,73.460 92.653 C 74.154 92.954,74.824 93.200,74.950 93.200 C 76.045 93.200,79.816 95.560,80.626 96.752 C 81.598 98.183,81.600 98.204,81.600 108.932 C 81.600 120.527,81.549 120.854,79.289 123.883 C 76.847 127.155,76.124 130.567,77.400 132.800 C 78.545 134.803,78.032 140.488,76.102 147.184 C 75.039 150.873,75.188 152.572,76.708 154.092 L 78.016 155.400 86.379 155.400 C 98.647 155.400,99.657 154.228,96.382 143.800 C 95.899 142.260,95.415 140.413,95.307 139.696 C 95.200 138.979,94.951 138.294,94.756 138.173 C 94.270 137.872,94.304 135.706,94.800 135.400 C 95.020 135.264,95.200 134.544,95.200 133.800 C 95.200 133.056,95.357 132.350,95.548 132.232 C 96.979 131.348,96.019 127.074,93.714 124.069 C 91.002 120.532,90.819 119.775,90.809 112.087 C 90.797 102.814,92.059 100.147,95.709 101.731 C 96.419 102.039,97.810 102.602,98.800 102.983 C 99.790 103.363,101.140 103.906,101.800 104.190 C 102.460 104.475,104.440 105.286,106.200 105.993 C 111.967 108.311,112.786 108.794,113.871 110.512 L 114.904 112.149 114.829 124.232 C 114.732 139.796,114.874 140.173,121.200 141.128 C 122.850 141.377,124.920 141.745,125.800 141.946 C 126.680 142.148,128.750 142.599,130.400 142.949 C 132.050 143.299,134.030 143.760,134.800 143.973 C 140.623 145.585,142.300 146.074,143.000 146.362 C 143.440 146.543,144.790 147.000,146.000 147.377 C 148.086 148.028,148.878 148.312,152.900 149.850 C 157.307 151.536,168.391 156.904,172.744 159.459 C 177.447 162.221,184.162 166.694,187.400 169.222 C 193.780 174.204,196.914 174.613,201.400 171.053 C 205.427 167.856,212.638 162.773,214.472 161.838 C 215.117 161.509,216.102 160.905,218.200 159.552 C 225.926 154.568,243.837 147.594,255.600 144.989 C 257.250 144.624,259.140 144.171,259.800 143.982 C 260.923 143.661,268.503 142.523,272.289 142.107 C 273.856 141.935,276.792 139.588,276.803 138.499 C 276.805 138.334,276.850 132.134,276.903 124.719 L 277.000 111.238 278.532 109.669 C 279.620 108.555,281.244 107.610,284.132 106.409 C 287.876 104.853,298.451 100.485,300.800 99.525 C 301.350 99.300,302.340 98.877,303.000 98.586 C 303.660 98.294,306.270 97.212,308.800 96.181 C 311.330 95.150,314.210 93.951,315.200 93.517 C 316.190 93.083,317.450 92.539,318.000 92.308 C 318.550 92.077,319.540 91.659,320.200 91.380 C 320.860 91.101,322.897 90.272,324.726 89.536 C 333.334 86.078,333.414 80.780,324.913 77.213 C 323.201 76.495,321.260 75.677,320.600 75.396 C 319.940 75.114,318.950 74.695,318.400 74.464 C 317.850 74.233,316.555 73.674,315.522 73.222 C 314.489 72.770,313.437 72.400,313.184 72.400 C 312.931 72.400,312.246 72.152,311.662 71.849 C 310.527 71.260,309.849 70.972,306.400 69.620 C 305.190 69.145,303.840 68.592,303.400 68.390 C 302.960 68.187,301.610 67.652,300.400 67.200 C 299.190 66.748,297.750 66.178,297.200 65.933 C 295.378 65.122,293.834 64.479,290.600 63.187 C 288.840 62.483,286.860 61.669,286.200 61.378 C 285.540 61.086,282.930 60.012,280.400 58.991 C 277.870 57.970,275.260 56.901,274.600 56.616 C 273.940 56.330,271.240 55.240,268.600 54.193 C 265.960 53.146,263.629 52.135,263.420 51.945 C 263.211 51.755,262.806 51.600,262.521 51.600 C 262.236 51.600,260.859 51.060,259.462 50.400 C 258.065 49.740,256.715 49.200,256.462 49.200 C 256.209 49.200,254.877 48.685,253.501 48.055 C 252.125 47.425,250.370 46.679,249.600 46.398 C 248.830 46.116,247.480 45.567,246.600 45.177 C 245.720 44.787,243.110 43.705,240.800 42.773 C 238.490 41.841,235.845 40.745,234.922 40.339 C 233.999 39.932,233.158 39.600,233.052 39.600 C 232.947 39.600,230.462 38.595,227.530 37.368 C 224.599 36.140,221.840 34.986,221.400 34.804 C 220.960 34.621,219.790 34.119,218.800 33.688 C 217.810 33.257,216.370 32.675,215.600 32.395 C 214.830 32.115,213.480 31.566,212.600 31.174 C 208.393 29.301,202.028 26.800,201.470 26.800 C 201.128 26.800,200.751 26.644,200.633 26.453 C 200.515 26.262,199.512 25.985,198.404 25.838 C 197.296 25.691,196.167 25.513,195.895 25.442 C 195.623 25.372,194.500 25.487,193.400 25.698 M301.800 153.628 C 300.260 153.799,298.190 154.032,297.200 154.147 C 295.130 154.386,290.881 155.038,287.400 155.651 C 286.080 155.884,284.100 156.226,283.000 156.412 C 281.900 156.598,279.470 157.133,277.600 157.601 C 275.730 158.069,273.470 158.608,272.577 158.799 C 271.684 158.991,270.514 159.316,269.977 159.522 C 269.440 159.728,267.920 160.213,266.600 160.601 C 265.280 160.988,263.633 161.552,262.940 161.853 C 262.246 162.154,261.397 162.400,261.053 162.400 C 260.709 162.400,259.836 162.652,259.114 162.960 C 258.391 163.267,257.080 163.790,256.200 164.122 C 246.435 167.799,233.449 174.142,224.028 179.837 C 221.513 181.356,218.989 182.871,218.417 183.202 C 217.846 183.533,216.331 184.523,215.050 185.402 C 213.769 186.281,212.041 187.450,211.210 188.000 C 208.803 189.593,207.629 190.418,203.800 193.200 C 196.719 198.346,197.139 198.320,190.727 194.000 C 188.115 192.240,185.899 190.800,185.802 190.800 C 185.704 190.800,184.404 190.019,182.912 189.064 C 181.421 188.110,179.165 186.812,177.900 186.181 C 176.635 185.549,175.600 184.890,175.600 184.716 C 175.600 184.542,175.442 184.400,175.249 184.400 C 175.056 184.400,172.269 183.140,169.056 181.600 C 165.843 180.060,163.111 178.800,162.985 178.800 C 162.859 178.800,161.918 178.418,160.895 177.952 C 158.928 177.056,156.785 176.282,152.200 174.812 C 150.660 174.318,148.860 173.678,148.200 173.389 C 147.540 173.101,146.550 172.774,146.000 172.664 C 145.450 172.553,143.560 172.070,141.800 171.589 C 137.976 170.544,136.467 170.205,132.042 169.392 C 130.195 169.053,128.524 168.677,128.328 168.555 C 125.388 166.738,82.760 165.049,79.224 166.609 C 76.846 167.659,76.642 167.817,75.400 169.573 L 74.200 171.269 74.200 238.402 L 74.200 305.536 75.200 306.606 C 77.182 308.727,77.610 308.800,88.059 308.800 C 93.394 308.800,99.208 308.980,100.979 309.200 C 102.751 309.420,106.360 309.770,109.000 309.977 C 114.309 310.394,122.016 311.373,124.800 311.984 C 125.790 312.201,128.040 312.673,129.800 313.033 C 131.560 313.392,133.900 313.941,135.000 314.252 C 140.302 315.750,141.496 316.119,142.714 316.639 C 143.436 316.948,144.268 317.200,144.562 317.200 C 145.029 317.200,147.210 318.066,152.400 320.313 C 155.226 321.536,158.000 323.564,158.000 324.408 C 158.000 326.006,156.962 325.878,146.200 322.952 C 140.133 321.302,135.626 320.247,131.800 319.581 C 130.480 319.352,128.410 318.986,127.200 318.769 C 124.222 318.235,123.383 318.115,117.600 317.396 C 108.229 316.230,100.808 315.942,85.766 316.159 L 70.932 316.374 69.666 315.068 L 68.400 313.762 68.378 246.981 C 68.357 185.172,68.305 180.076,67.678 178.536 C 65.596 173.423,59.215 173.695,56.758 179.000 C 55.579 181.547,55.605 320.939,56.785 323.400 C 57.682 325.272,58.860 326.623,60.787 327.992 C 62.300 329.068,73.859 329.328,77.200 328.361 C 79.900 327.580,114.554 328.522,116.800 329.437 C 117.130 329.572,119.200 329.923,121.400 330.218 C 127.243 331.000,130.448 331.552,131.760 332.002 C 132.398 332.221,133.322 332.400,133.814 332.400 C 134.306 332.400,135.584 332.664,136.654 332.987 C 137.724 333.309,140.040 333.928,141.800 334.362 C 143.560 334.796,145.540 335.341,146.200 335.573 C 146.860 335.806,149.650 336.732,152.400 337.631 C 155.150 338.530,157.940 339.496,158.600 339.779 C 159.260 340.061,160.610 340.611,161.600 341.001 C 165.056 342.363,172.825 346.091,176.600 348.199 C 177.920 348.936,179.270 349.677,179.600 349.845 C 180.872 350.495,186.258 353.791,187.400 354.619 C 192.905 358.610,199.880 358.331,203.833 353.963 C 204.213 353.543,204.680 353.200,204.870 353.200 C 205.060 353.200,205.977 352.711,206.908 352.113 C 209.647 350.355,221.490 344.241,225.800 342.361 C 228.362 341.244,235.741 338.400,236.079 338.400 C 236.299 338.400,237.046 338.148,237.740 337.840 C 239.432 337.087,241.500 336.383,243.200 335.980 C 243.970 335.797,245.860 335.259,247.400 334.783 C 248.940 334.307,250.920 333.764,251.800 333.576 C 252.680 333.389,254.570 332.974,256.000 332.655 C 257.430 332.336,259.680 331.873,261.000 331.627 C 262.320 331.380,264.186 330.999,265.147 330.778 C 266.108 330.558,267.998 330.282,269.347 330.166 C 270.696 330.049,272.520 329.777,273.400 329.560 C 278.055 328.417,300.318 327.974,321.515 328.604 C 330.072 328.859,329.955 328.886,332.985 325.894 C 335.576 323.335,335.398 328.794,335.399 251.800 C 335.400 184.813,335.369 181.734,334.669 180.274 C 332.090 174.891,326.376 174.474,323.846 179.482 C 323.257 180.647,323.189 186.891,323.099 247.356 L 323.000 313.947 321.832 315.166 L 320.665 316.385 305.832 316.164 C 284.150 315.842,276.942 316.395,255.800 320.006 C 249.337 321.110,249.185 321.116,248.656 320.269 C 247.849 318.976,250.181 317.436,255.200 315.946 C 262.175 313.876,271.864 311.916,279.600 311.011 C 282.130 310.714,284.650 310.359,285.200 310.221 C 285.750 310.083,292.050 309.828,299.200 309.655 C 314.327 309.290,314.819 309.171,316.394 305.521 C 317.655 302.596,317.674 159.629,316.413 157.031 C 314.675 153.449,311.039 152.603,301.800 153.628 M302.673 165.700 C 305.387 167.546,305.200 162.727,305.200 230.747 C 305.200 298.391,305.360 293.936,302.867 295.796 C 301.919 296.504,300.885 296.626,293.600 296.892 C 282.219 297.308,278.803 297.670,267.000 299.708 C 265.240 300.012,263.530 300.370,263.200 300.504 C 262.635 300.734,261.779 300.942,256.400 302.157 C 255.190 302.430,253.930 302.762,253.600 302.893 C 253.270 303.025,251.650 303.520,250.000 303.992 C 246.292 305.053,240.892 306.982,238.089 308.247 C 236.928 308.771,235.822 309.200,235.630 309.200 C 235.439 309.200,234.194 309.740,232.863 310.400 C 231.533 311.060,230.341 311.600,230.215 311.600 C 229.691 311.600,220.750 316.233,218.600 317.618 C 217.940 318.043,217.130 318.514,216.800 318.664 C 215.732 319.150,205.428 326.054,204.515 326.895 C 204.028 327.344,203.287 327.911,202.868 328.156 C 202.448 328.400,201.054 329.449,199.769 330.487 C 195.915 333.598,195.283 333.494,189.400 328.785 C 184.142 324.575,175.297 318.398,173.200 317.470 C 172.870 317.325,172.247 316.979,171.815 316.703 C 171.383 316.426,170.303 315.759,169.415 315.221 C 166.941 313.722,156.856 308.800,156.257 308.800 C 156.111 308.800,155.228 308.452,154.296 308.027 C 152.571 307.240,147.578 305.423,145.400 304.789 C 144.740 304.597,142.940 304.057,141.400 303.589 C 138.618 302.744,135.996 302.051,131.400 300.946 C 128.925 300.351,124.613 299.581,118.000 298.552 C 112.903 297.759,100.922 296.861,94.993 296.827 C 89.701 296.797,87.646 296.025,86.776 293.738 C 86.265 292.393,86.258 181.225,86.769 179.880 C 87.783 177.214,88.597 177.058,100.145 177.307 C 105.895 177.431,111.410 177.720,112.400 177.950 C 113.390 178.180,115.640 178.545,117.400 178.762 C 122.608 179.401,125.575 179.896,129.600 180.795 C 131.690 181.261,134.120 181.800,135.000 181.992 C 139.308 182.930,143.491 184.138,144.895 184.848 C 145.277 185.042,145.879 185.200,146.234 185.200 C 146.589 185.200,147.446 185.442,148.140 185.738 C 150.504 186.747,155.854 188.800,156.119 188.800 C 156.736 188.800,169.310 194.865,173.000 196.942 C 178.424 199.996,181.349 201.823,186.200 205.188 C 193.658 210.361,195.823 211.298,198.324 210.433 C 200.770 209.588,203.331 208.289,204.395 207.354 C 206.029 205.918,216.767 198.049,219.800 196.064 C 221.340 195.057,222.690 194.135,222.800 194.016 C 222.910 193.897,223.360 193.583,223.800 193.317 C 224.240 193.052,226.285 191.792,228.344 190.517 C 230.404 189.243,232.654 187.857,233.344 187.438 C 235.505 186.127,249.724 178.939,252.016 177.999 C 253.217 177.506,254.920 176.787,255.800 176.401 C 259.471 174.788,266.286 172.334,270.200 171.215 C 276.687 169.361,278.717 168.866,285.800 167.412 C 292.201 166.098,293.150 165.947,296.400 165.725 C 298.270 165.598,300.070 165.343,300.400 165.159 C 301.225 164.699,301.190 164.690,302.673 165.700 M191.800 216.350 C 191.360 216.538,189.920 216.820,188.600 216.977 C 187.280 217.134,184.940 217.712,183.400 218.262 C 181.860 218.811,180.240 219.369,179.800 219.501 C 179.360 219.634,178.137 220.250,177.082 220.871 C 176.028 221.492,175.075 222.000,174.966 222.000 C 174.856 222.000,174.549 222.178,174.283 222.396 C 174.017 222.614,172.702 223.687,171.359 224.781 C 166.485 228.754,163.200 234.613,163.200 239.335 C 163.200 247.277,176.947 247.524,180.984 239.655 C 185.066 231.696,195.642 229.402,202.831 234.916 C 204.112 235.898,206.400 239.290,206.400 240.207 C 206.400 240.727,206.580 241.264,206.800 241.400 C 207.663 241.934,206.950 245.402,205.335 248.525 C 204.385 250.363,201.763 253.007,198.400 255.518 C 182.809 267.160,179.724 282.116,192.826 282.543 C 198.360 282.723,200.139 281.442,202.185 275.803 C 203.308 272.705,206.423 268.259,208.357 266.993 C 209.151 266.474,210.430 265.475,211.200 264.773 C 211.970 264.072,213.500 262.823,214.600 261.999 C 224.763 254.383,227.553 242.223,221.758 230.800 C 219.981 227.296,215.194 222.254,212.492 221.039 C 211.561 220.621,210.800 220.126,210.800 219.939 C 210.800 219.753,210.476 219.600,210.080 219.600 C 209.684 219.600,209.189 219.444,208.980 219.253 C 207.170 217.601,194.064 215.386,191.800 216.350 M191.832 291.148 C 191.714 291.340,191.069 291.606,190.400 291.740 C 188.945 292.031,185.200 295.409,185.200 296.431 C 185.200 296.828,185.020 297.264,184.800 297.400 C 183.052 298.481,184.758 305.522,187.347 307.909 C 196.341 316.199,208.966 305.124,202.023 295.034 C 199.951 292.021,192.943 289.350,191.832 291.148 " stroke="none" fill="#15803d" fill-rule="evenodd"></path></g></svg>